<svg width="48" height="48" viewBox="0 0 48 48" fill="none" xmlns="http://www.w3.org/2000/svg">
<g clip-path="url(#clip0)">
<path fill-rule="evenodd" clip-rule="evenodd" d="M27.1214 8.30745C24.0177 7.69008 20.8007 8.00694 17.8771 9.21794C14.9534 10.4289 12.4546 12.4797 10.6965 15.1109C8.93838 17.7421 8 20.8355 8 24C8 27.1645 8.93838 30.2579 10.6965 32.8891C12.4546 35.5203 14.9534 37.5711 17.8771 38.7821C20.8007 39.9931 24.0177 40.3099 27.1214 39.6926C30.2251 39.0752 33.0761 37.5514 35.3137 35.3137L40.9706 35.3137L40.9706 40.9706C37.6141 44.327 33.3377 46.6128 28.6822 47.5389C24.0266 48.4649 19.201 47.9896 14.8156 46.1731C10.4302 44.3566 6.68188 41.2805 4.04473 37.3337C1.40758 33.3869 3.8147e-07 28.7468 0 24C-3.8147e-07 19.2533 1.40757 14.6131 4.04473 10.6663C6.68188 6.71955 10.4302 3.64341 14.8156 1.8269C19.201 0.0103992 24.0266 -0.464881 28.6822 0.461163C33.3377 1.38721 37.6141 3.67299 40.9706 7.02945L35.3137 12.6863C33.0761 10.4487 30.2251 8.92481 27.1214 8.30745Z" fill="#011F3F"/>
</g>
<path fill-rule="evenodd" clip-rule="evenodd" d="M28.2427 19.7574C27.6855 19.2003 27.0241 18.7583 26.2961 18.4568C25.5682 18.1553 24.7879 18.0001 24 18.0001C23.2121 18.0001 22.4319 18.1553 21.7039 18.4568C20.976 18.7583 20.3145 19.2003 19.7574 19.7574C19.2002 20.3146 18.7583 20.976 18.4567 21.704C18.1552 22.4319 18 23.2121 18 24.0001C18 24.788 18.1552 25.5682 18.4567 26.2962C18.7583 27.0241 19.2002 27.8429 19.7574 28.4L14.1005 33.8996C12.8005 32.5995 11.7693 31.0562 11.0657 29.3576C10.3621 27.6591 10 25.8386 10 24.0001C10 22.1616 10.3621 20.341 11.0657 18.6425C11.7693 16.9439 12.8005 15.4006 14.1005 14.1006C15.4005 12.8005 16.9439 11.7693 18.6424 11.0657C20.341 10.3622 22.1615 10.0001 24 10.0001C25.8385 10.0001 27.659 10.3622 29.3576 11.0657C31.0561 11.7693 32.5995 12.8005 33.8995 14.1006L33.8995 19.7574L28.2427 19.7574Z" fill="#011F3F"/>
<defs>
<clipPath id="clip0">
<rect width="48" height="48" fill="white"/>
</clipPath>
</defs>
</svg>
